<?xml version="1.0" encoding="UTF-8"?>
<svg id="Ebene_1" xmlns="http://www.w3.org/2000/svg" version="1.1" viewBox="0 0 600 300">
  <!-- Generator: Adobe Illustrator 30.2.1, SVG Export Plug-In . SVG Version: 2.1.1 Build 1)  -->
  <defs>
    <style>
      .st0, .st1, .st2 {
        fill: #eeeded;
      }

      .st1 {
        font-size: 166.45px;
      }

      .st1, .st2 {
        font-family: MyanmarMN, 'Myanmar MN';
      }

      .st2 {
        font-size: 34.95px;
      }
    </style>
  </defs>
  <g>
    <path class="st0" d="M63.3,209.24c1.76-.91,3.37-1.84,5.06-2.59,1.29-.58,1.76-1.4,1.75-2.82-.05-7.48,0-14.95,0-22.43,0-6.66-.03-13.31.02-19.97.01-1.3-.42-2.13-1.45-2.91-3.65-2.76-7.23-5.62-10.85-8.42-.87-.67-1.39-1.38-1.46-2.57-.16-2.56-2.2-4.35-4.73-4.42-2.45-.06-4.61,1.6-5.07,3.91-.54,2.67.71,5.01,3.14,5.88.11.04.22.09.34.09,4.97-.04,7.97,3.65,11.72,6.01,3.23,2.04,4.5,4.61,3.96,8.35-.27,1.91-.05,3.89-.05,6.41-2.02-1.8-3.64-3.24-5.26-4.68-1.37-1.22-2.77-2.25-2.77-4.5,0-1.84-2.3-3.32-4.31-3.32-2.04,0-3.81,1.41-4.28,3.41-.45,1.94.4,4.38,2.28,4.72,4.57.83,7.03,4.48,10.2,7.11,4.24,3.52,4.13,3.65,4.13,9.22,0,5.04-.03,10.09.02,15.13.01,1.24-.32,2.04-1.47,2.64-7.75,4.06-15.46,8.2-23.21,12.24-1.55.8-3.31.31-4.97.27-.53-.01-.79-.44-.81-.96-.02-.58-.04-1.16-.04-1.74,0-39.36,0-78.71,0-118.07,0-.17,0-.35,0-.52,0-2.99-.05-3.04-2.97-3.06-7.98-.05-15.14-5.34-17.54-12.95-2.87-9.09,2.51-19.26,11.65-22.04,2.18-.66,4.38-1.01,6.66-1.01,35.94.02,71.87,0,107.81.03,9.91,0,17.66,6.95,18.33,16.78.62,9.21-5.56,16.68-14.31,18.8-1.59.39-3.21.54-4.83.39-1.65-.15-2.06.54-2.06,2.09.05,12.93.02,25.85.03,38.78,0,26.95.01,53.91.02,80.86,0,2.71-.03,2.67-2.69,2.77-1.8.07-3.37-.39-4.95-1.24-7.09-3.81-14.22-7.57-21.36-11.29-1.17-.61-1.72-1.33-1.72-2.69.04-6.38.02-12.75-.02-19.13,0-1.08.38-1.86,1.17-2.56,2.95-2.61,5.87-5.25,8.78-7.91.88-.8,1.79-1.29,3.03-1.47,2.63-.38,4.23-2.37,4-4.63-.23-2.19-2.28-4-4.55-4.01-2.32-.01-4.05,1.7-4.33,4.32-.06.53-.06,1.05-.48,1.44-2.18,2-4.35,4-6.54,5.98-.15.14-.4.16-.59.23-.63-.55-.45-1.23-.46-1.84-.02-2.2.08-4.41-.04-6.61-.09-1.72.45-2.94,1.87-3.98,2.99-2.19,5.87-4.53,8.8-6.81.79-.62,1.56-1.06,2.69-.86,2.98.55,5.56-1.37,6.01-4.34.39-2.56-1.64-5.19-4.33-5.62-2.8-.46-5.33,1.32-5.68,4.3-.16,1.32-.75,2.08-1.69,2.81-3.57,2.77-7.1,5.59-10.67,8.36-.95.73-1.4,1.55-1.39,2.79.04,14.26.04,28.52.01,42.78,0,1.16.43,1.78,1.43,2.28,5.33,2.69,10.63,5.43,15.94,8.16.6.31,1.32.46,1.71,1.1-.17.58-.64.41-1.01.41-6.9,0-13.8-.04-20.69.01-1.58.01-2.1-.51-2.1-2.11.04-19.82.03-39.65.02-59.47,0-.98.19-1.77.97-2.47,5.81-5.23,11.6-10.49,17.37-15.77.82-.75,1.65-1.07,2.79-1.05,4.64.06,8.18-4.05,7.58-8.62-.12-.92-.17-1.85-.17-2.77-.02-13.56-.02-27.13-.02-40.69,0-.85-.13-1.7.69-2.39,1.6-1.32,1.98-1.33,3.31.26,3.53,4.23,10.06,5.38,14.86,2.62,5.05-2.9,7.19-8.79,5.19-14.25-1.87-5.11-7.48-8.19-13.06-7.09-1.66.33-3.31.45-5,.45-30.84-.01-61.67-.01-92.51,0-1.51,0-2.99-.14-4.48-.43-5.97-1.17-11.84,2.33-13.47,7.98-1.7,5.87,1.34,11.92,7.09,14.12,4.52,1.73,9.8.31,13.26-3.52.44-.49.73-1.55,1.73-1,.98.54,2.18.97,2.25,2.4.02.46.02.93.02,1.39,0,13.22,0,26.43.02,39.65,0,2.01-.71,3.98-.12,6.03,1.07,3.7,3.6,5.78,7.43,5.82,1,0,1.77.31,2.5.97,5.9,5.4,11.81,10.79,17.73,16.16.74.67.84,1.5.83,2.37-.02,2.32-.15,4.63-.14,6.95.04,13.56.11,27.12.15,40.67.01,4.11-.09,8.23-.1,12.34,0,.93-.29,1.42-1.27,1.41-7.25-.02-14.49-.02-21.74-.03-.21,0-.48-.03-.63-.64,3.96-2.02,7.99-4.09,12.13-6.21Z"/>
    <path class="st0" d="M91.95,216.12c-3.14,0-3.15,0-3.15-2.93,0-43.94,0-87.87,0-131.81,0-1.12.12-2.14.73-3.14.81-1.32.75-2.68-.51-3.75-1.08-.92-3.87-.95-4.94-.09-1.31,1.05-1.34,2.46-.63,3.76.6,1.09.69,2.17.69,3.33,0,43.99,0,87.99,0,131.98,0,2.43-1.81,3.55-4.06,2.55-.43-.19-.63-.5-.65-.94-.03-.58-.03-1.16-.03-1.74,0-26.31-.01-52.63.05-78.94,0-1.92-.6-3.25-2-4.51-5.05-4.56-5.02-4.59-5.02-11.37,0-.41.02-.81,0-1.22-.19-2.63.08-4.63,2.72-6.53,4.75-3.41,3.84-9.71-1.36-12.55-1.01-.55-1.38-1.19-1.37-2.32.04-5.04.02-10.09,0-15.13,0-.83.17-1.56.59-2.31.85-1.54.56-3.27-.56-4.11-1.18-.88-4.06-.76-5.08.27-1.21,1.22-1.15,2.62-.22,3.95.54.77.67,1.57.66,2.46-.01,4.98-.03,9.97,0,14.95,0,1.06-.32,1.67-1.31,2.15-2.84,1.38-4.5,3.68-4.45,6.89.04,3.17,1.6,5.53,4.47,6.9.96.46,1.37.99,1.34,2.09-.08,3.65.03,7.3-.09,10.94-.05,1.61.5,2.77,1.64,3.81,1.55,1.4,3.03,2.87,4.57,4.28.59.54.94,1.15.96,1.96.11,3.65-.09,7.29-.25,10.89-.55.33-.83-.06-1.1-.31-4.37-3.98-8.71-7.99-13.1-11.94-.98-.88-1.26-1.62-.66-2.96,2.24-5.05-.92-10.48-6.54-11.12-1.81-.21-2.13-.9-2.12-2.51.05-11.53-.05-23.07.07-34.6.03-2.63-.68-4.48-3.05-5.63-.46-.23-.84-.63-1.3-.87-1.41-.74-2.11-1.78-1.97-3.48.13-1.57-.73-3-1.21-4.74h85.92c-1.22,2.16-1.41,4.26-1.53,6.38-.04.78-.81,1.17-1.4,1.44-4.02,1.81-4.98,4.84-4.84,9.15.34,10.65.07,21.33.12,31.99,0,1.76-.34,2.59-2.37,2.92-5.91.95-8.49,6-6.17,11.59.28.67.36,1.17-.22,1.7-4.72,4.28-9.43,8.57-14.15,12.85-.11.1-.31.11-.48.16-.62-.43-.39-1.06-.39-1.59-.03-2.96.03-5.91-.04-8.87-.02-1.14.34-1.99,1.18-2.74,1.5-1.36,2.91-2.82,4.43-4.17.99-.88,1.41-1.85,1.38-3.19-.07-3.65,0-7.3-.04-10.95-.02-1.17.33-1.86,1.41-2.47,3.75-2.1,5.15-5.25,4.17-8.97-.57-2.17-2-3.66-3.94-4.61-1.23-.6-1.61-1.42-1.6-2.74.07-4.69.04-9.39.03-14.08,0-1.13.17-2.14.83-3.12.86-1.28.84-2.65-.3-3.8-.99-1-3.92-1.17-5.09-.29-1.23.93-1.55,2.3-.83,3.56,1.03,1.79.93,3.65.93,5.56,0,4.12,0,8.23.05,12.35.02,1.18-.35,1.9-1.49,2.42-2.7,1.22-4.25,3.33-4.4,6.35-.17,3.22,1.25,5.66,4,7.17,1.39.76,1.87,1.67,1.84,3.16-.06,2.78-.03,5.56,0,8.35.02,1.12-.31,2.01-1.15,2.77-1.5,1.36-2.91,2.83-4.44,4.16-1.12.98-1.62,2.07-1.62,3.62.04,26.72.03,53.44.03,80.16,0,1.01.27,2.23-1.57,2.19Z"/>
    <path class="st0" d="M134.42,231.3c7.01,0,13.85-.02,20.69-.02,2.15,0,2.26.12,2.28,2.25.01,1.45.01,2.9,0,4.35,0,2.5-.06,2.55-2.51,2.55-10.89,0-21.79,0-32.68,0-34.65,0-69.3-.02-103.95-.02q-2.57,0-2.57-2.59c0-1.51.1-3.02-.02-4.52-.13-1.65.56-2.05,2.11-2.05,12.98.05,25.96.04,38.94.04,25.84,0,51.68,0,77.7,0Z"/>
    <path class="st0" d="M64.86,43.82c30.54,0,60.91,0,91.28,0,3.07,0,3.1,0,3.07,2.98-.06,4.77.7,4.13-4.13,4.14-46.02.02-92.03,0-138.05,0-2.96,0-2.97,0-2.93-2.94.07-4.74-.53-4.19,4.17-4.2,15.47-.03,30.95,0,46.6,0Z"/>
    <path class="st0" d="M69.73,226.97c-13.44,0-26.71,0-39.98,0-2.27,0-2.27-.01-2.24-2.3q.05-4.45,4.47-4.45c36.56,0,73.13,0,109.69-.02,4.76,0,3.79.06,3.84,3.8,0,.58-.02,1.16-.04,1.74-.04.84-.47,1.25-1.34,1.23-.75-.02-1.51,0-2.26,0-23.99,0-47.98,0-72.14,0Z"/>
    <path class="st0" d="M144.91,69.25c2.09,3.03,2.16,5.8.3,8.47-1.5,2.16-4.46,3.14-7.27,2.42-2.62-.67-4.6-2.8-4.95-5.46-.35-2.69.49-4.94,2.81-6.47,2.5-1.64,5.09-1.75,7.67-.15.49.3.9.72,1.43,1.18Z"/>
    <path class="st0" d="M36.69,67.79c3.24,2.09,4.31,5.02,3.1,8.22-1.1,2.9-4.14,4.72-7.15,4.28-3.56-.52-5.81-2.94-6.06-6.5-.3-4.29,4.31-7.77,8.71-6.57.44.12.86.34,1.4.57Z"/>
    <path class="st0" d="M118.65,130.16c-1.84-1.17-2.46-2.57-1.94-4.09.47-1.38,2.08-2.45,3.53-2.26,1.62.21,2.59,1.19,2.88,2.78.43,2.36-1.33,3.81-4.47,3.56Z"/>
    <path class="st0" d="M51.57,130.16c-1.84-1.17-2.46-2.57-1.94-4.09.47-1.38,2.08-2.45,3.53-2.26,1.62.21,2.59,1.19,2.88,2.78.43,2.36-1.33,3.81-4.47,3.56Z"/>
    <path class="st0" d="M68.88,108.08c-1.84-1.17-2.46-2.57-1.94-4.09.47-1.38,2.08-2.45,3.53-2.26,1.62.21,2.59,1.19,2.88,2.78.43,2.36-1.33,3.81-4.47,3.56Z"/>
    <path class="st0" d="M101.84,108.08c-1.84-1.17-2.46-2.57-1.94-4.09.47-1.38,2.08-2.45,3.53-2.26,1.62.21,2.59,1.19,2.88,2.78.43,2.36-1.33,3.81-4.47,3.56Z"/>
    <path class="st0" d="M50.12,151.23c-1.84-1.17-2.46-2.57-1.94-4.09.47-1.38,2.08-2.45,3.53-2.26,1.62.21,2.59,1.19,2.88,2.78.43,2.36-1.33,3.81-4.47,3.56Z"/>
    <path class="st0" d="M52.15,168.97c-1.84-1.17-2.46-2.57-1.94-4.09.47-1.38,2.08-2.45,3.53-2.26,1.62.21,2.59,1.19,2.88,2.78.43,2.36-1.33,3.81-4.47,3.56Z"/>
    <path class="st0" d="M120.38,151.23c-1.84-1.17-2.46-2.57-1.94-4.09.47-1.38,2.08-2.45,3.53-2.26,1.62.21,2.59,1.19,2.88,2.78.43,2.36-1.33,3.81-4.47,3.56Z"/>
    <path class="st0" d="M118.65,168.97c-1.84-1.17-2.46-2.57-1.94-4.09.47-1.38,2.08-2.45,3.53-2.26,1.62.21,2.59,1.19,2.88,2.78.43,2.36-1.33,3.81-4.47,3.56Z"/>
  </g>
  <text class="st1" transform="translate(191.63 180.36)"><tspan x="0" y="0">PWAI</tspan></text>
  <text class="st2" transform="translate(259.94 221.98)"><tspan x="0" y="0">POWER WITH AI</tspan></text>
</svg>